<?xml version="1.0" encoding="UTF-8" standalone="no"?>
<!-- Created with Inkscape (http://www.inkscape.org/) -->
<svg id="svg2" xmlns:rdf="http://www.w3.org/1999/02/22-rdf-syntax-ns#" xmlns="http://www.w3.org/2000/svg" height="230" viewBox="0 0 250 230" width="250" version="1.1" xmlns:cc="http://creativecommons.org/ns#" xmlns:dc="http://purl.org/dc/elements/1.1/">
 <metadata id="metadata7">
  <rdf:RDF>
   <cc:Work rdf:about="">
    <dc:format>image/svg+xml</dc:format>
    <dc:type rdf:resource="http://purl.org/dc/dcmitype/StillImage"/>
    <dc:title/>
   </cc:Work>
  </rdf:RDF>
 </metadata>
 <g id="layer2" stroke="#0092a5" transform="translate(-1061.9,-679.38)">
  <g id="g4893" transform="matrix(24.286 0 0 26.36 -24740 -23183)">
   <g id="g4731" fill="none" transform="matrix(.4565 0 0 .41362 577.7 534.39)">
    <path id="path4318" stroke-width="1px" stroke="#0092a5" d="m1067.2 901.67c0.4729-2.7531 2.326-3.2481 3.9315-3.8776 3.0412 0.20995 1.907 2.7558 1.5618 3.2852-0.8796 1.3494-1.7593 1.1848-2.6389 1.7772"/>
    <path id="path4320" stroke-width=".99105px" stroke="#0b92a5" d="m1070.8 898.6-1.502 6.5853c-2.3103 0.0487-4.071 0.6145-5.9542 2.496l20.759-1.7525"/>
    <path id="path4322" stroke-width="1px" stroke="#0092a5" d="m1075.8 898.23-3.9853 7.7552c-1.5426-0.0328-1.449-1.0002-0.8617-1.885 4.484-1.0192 7.5578 0.34108 10.825 0.53855"/>
    <path id="path4324" stroke-width="1px" stroke="#0092a5" d="m1080.5 900.33c0.1848-1.7189-0.7888-1.6174-1.5618-1.8311-2.3236 2.7488-2.8424 7.0768-4.1469 10.717"/>
   </g>
  </g>
  <g font-family="sans-serif" fill="#000000">
   <text id="text4348" style="word-spacing:0px;letter-spacing:0px" line-height="125%" xml:space="preserve" font-size="12.185px" transform="scale(.9221 1.0845)" y="675.19672" x="1712.0358" stroke-width="1.2185px"><tspan id="tspan4350" y="675.19672" x="1712.0358"><tspan id="tspan4352" font-size="85.292px" font-family="&apos;Al Nile&apos;" stroke="#0092a5" y="675.19672" x="1712.0358" stroke-width="1.2185px"><tspan id="tspan4154" font-size="30px">Galería con</tspan></tspan></tspan><tspan id="tspan4354" y="781.8114" x="1712.0358"><tspan id="tspan4356" font-size="85.292px" font-family="&apos;Al Nile&apos;" stroke="#0092a5" y="781.8114" x="1712.0358" stroke-width="1.2185px"> mis cuadros</tspan></tspan></text>
   <flowRoot id="flowRoot4146" style="word-spacing:0px;letter-spacing:0px" xml:space="preserve" transform="translate(1061.9,659.38)" line-height="125%" font-size="10px"><flowRegion id="flowRegion4148"><rect id="rect4150" y="59.917" width="478.65" x="494.49" height="138.43"/></flowRegion><flowPara id="flowPara4152"/></flowRoot>
   <text id="text4320" style="word-spacing:0px;letter-spacing:0px" xml:space="preserve" font-size="40px" y="864.28577" x="1065.3088" line-height="125%"><tspan id="tspan4322" y="864.28577" x="1065.3088"><tspan id="tspan4324" y="864.28577" x="1065.3088" font-size="40px">Galería con  </tspan></tspan><tspan id="tspan4326" y="901.78577" x="1065.3088"><tspan id="tspan4328" y="901.78577" x="1065.3088" font-size="40px">mis cuadros</tspan></tspan></text>
  </g>
 </g>
</svg>
